<svg id="svg" version="1.1" xmlns="http://www.w3.org/2000/svg" xmlns:xlink="http://www.w3.org/1999/xlink" width="400" height="41.6" viewBox="0, 0, 400,41.6"><g id="svgg"><path id="path0" d="M4.167 0.408 C 4.167 0.775,4.090 0.820,3.375 0.866 L 2.583 0.917 2.500 1.667 L 2.417 2.417 1.667 2.500 L 0.917 2.583 0.869 4.208 C 0.822 5.811,0.816 5.833,0.411 5.833 L 0.000 5.833 0.000 8.750 L 0.000 11.667 0.417 11.667 C 0.829 11.667,0.833 11.681,0.836 13.125 C 0.839 14.852,0.909 14.997,1.800 15.117 C 2.440 15.202,2.486 15.245,2.533 15.796 C 2.596 16.532,2.778 16.627,4.375 16.757 L 5.667 16.862 5.667 17.425 C 5.667 18.226,5.991 18.333,8.406 18.333 L 10.500 18.333 10.500 18.896 C 10.500 19.671,10.729 19.803,12.301 19.934 L 13.667 20.048 13.667 20.682 C 13.667 21.111,13.761 21.372,13.958 21.487 C 14.236 21.648,14.236 21.657,13.958 21.662 C 13.725 21.666,13.667 21.815,13.667 22.417 L 13.667 23.167 11.250 23.167 L 8.833 23.167 8.833 22.506 C 8.833 21.761,8.533 21.500,7.678 21.500 C 7.183 21.500,7.167 21.476,7.167 20.750 L 7.167 20.000 4.833 20.000 C 2.525 20.000,2.500 20.004,2.498 20.375 C 2.492 21.278,2.326 21.500,1.657 21.500 C 1.306 21.500,0.973 21.575,0.917 21.667 C 0.860 21.758,0.631 21.833,0.407 21.833 L 0.000 21.833 0.000 24.917 L 0.000 28.000 0.417 28.000 C 0.777 28.000,0.833 28.074,0.833 28.550 C 0.833 29.295,1.090 29.500,2.022 29.500 C 2.668 29.500,2.830 29.561,2.918 29.838 C 2.977 30.024,3.226 30.304,3.471 30.461 C 3.716 30.617,4.016 30.840,4.137 30.956 C 4.293 31.105,5.036 31.167,6.679 31.167 L 9.000 31.167 9.000 31.571 C 9.000 32.428,9.993 32.770,12.097 32.636 C 13.275 32.561,13.493 32.403,13.497 31.625 L 13.500 31.167 15.720 31.167 C 18.649 31.167,19.606 30.909,19.762 30.079 C 19.862 29.545,19.917 29.500,20.477 29.497 C 21.321 29.494,21.469 29.353,21.530 28.497 C 21.578 27.820,21.627 27.745,22.045 27.697 C 22.710 27.621,23.022 27.018,23.164 25.540 C 23.231 24.831,23.297 24.344,23.310 24.458 C 23.325 24.590,23.606 24.667,24.077 24.667 L 24.821 24.667 24.869 26.208 L 24.917 27.750 25.667 27.833 L 26.417 27.917 26.500 28.667 L 26.583 29.417 27.367 29.467 C 28.005 29.508,28.170 29.585,28.261 29.884 C 28.432 30.444,28.844 30.833,29.266 30.833 C 29.476 30.833,29.693 30.908,29.750 31.000 C 29.811 31.098,30.807 31.167,32.177 31.167 L 34.500 31.167 34.503 31.625 C 34.507 32.451,34.715 32.583,36.000 32.583 C 37.285 32.583,37.493 32.451,37.497 31.625 L 37.500 31.167 39.736 31.167 C 40.966 31.167,42.091 31.121,42.236 31.066 C 42.433 30.990,42.500 31.069,42.500 31.380 C 42.500 32.483,42.800 32.578,46.461 32.637 C 49.370 32.684,49.819 32.657,50.059 32.417 C 50.482 31.994,50.480 4.662,50.057 4.312 C 49.843 4.135,49.035 4.083,46.499 4.083 C 42.876 4.083,42.754 4.115,42.569 5.100 L 42.463 5.667 40.683 5.667 L 38.902 5.667 38.743 5.125 C 38.324 3.702,34.500 3.670,34.500 5.090 L 34.500 5.639 31.652 5.694 C 28.582 5.754,28.167 5.892,28.167 6.852 C 28.167 7.099,28.044 7.167,27.597 7.167 C 26.649 7.167,26.500 7.293,26.500 8.092 L 26.500 8.815 25.708 8.866 L 24.917 8.917 24.867 10.057 C 24.815 11.249,24.353 11.981,23.643 11.995 C 23.239 12.003,23.168 12.341,23.156 14.305 C 23.149 15.483,23.097 15.962,23.001 15.725 C 22.901 15.476,22.652 15.332,22.187 15.253 C 21.542 15.144,21.516 15.115,21.467 14.445 L 21.417 13.750 20.302 13.627 C 19.079 13.492,18.333 13.011,18.333 12.356 C 18.333 12.018,18.255 12.000,16.782 12.000 L 15.231 12.000 15.074 11.292 C 14.892 10.471,14.561 10.376,11.801 10.348 L 10.352 10.333 10.301 9.625 C 10.250 8.920,10.247 8.916,9.500 8.825 L 8.750 8.733 9.333 8.565 C 9.787 8.435,9.958 8.270,10.105 7.824 L 10.293 7.250 11.970 7.203 L 13.647 7.155 13.698 7.869 C 13.750 8.578,13.754 8.583,14.542 8.726 C 15.300 8.863,15.333 8.893,15.333 9.429 C 15.333 10.134,15.677 10.333,16.894 10.333 C 17.950 10.333,18.333 10.064,18.333 9.321 C 18.333 8.875,18.383 8.833,18.912 8.833 C 19.751 8.833,20.944 8.204,21.179 7.637 C 21.344 7.237,21.469 7.167,22.008 7.167 C 23.079 7.167,23.183 6.928,23.130 4.608 C 23.083 2.586,23.083 2.583,22.667 2.537 C 21.608 2.418,21.500 2.348,21.500 1.780 C 21.500 0.958,21.266 0.833,19.717 0.833 C 18.352 0.833,18.333 0.828,18.333 0.417 L 18.333 0.000 11.250 0.000 L 4.167 0.000 4.167 0.408 M205.667 16.071 C 205.667 30.759,205.690 32.166,205.941 32.417 C 206.269 32.745,212.834 32.734,213.163 32.404 C 213.503 32.063,213.665 30.233,213.666 26.708 L 213.667 23.167 215.250 23.167 L 216.833 23.167 216.833 24.649 C 216.833 26.254,216.880 26.333,217.824 26.333 C 218.287 26.333,218.288 26.336,218.435 27.875 L 218.583 29.417 219.269 29.467 L 219.955 29.517 220.043 30.467 C 220.239 32.581,220.161 32.546,224.921 32.629 C 229.875 32.716,229.559 32.908,229.570 29.815 C 229.579 27.172,229.404 26.615,228.541 26.531 C 228.013 26.480,228.000 26.460,228.000 25.674 C 228.000 24.959,227.955 24.858,227.590 24.767 C 226.694 24.542,226.333 23.975,226.333 22.792 C 226.333 21.627,226.230 21.508,225.208 21.502 C 224.877 21.500,224.833 21.415,224.833 20.769 L 224.833 20.038 225.583 19.925 L 226.333 19.813 226.333 19.073 C 226.333 18.373,226.359 18.333,226.801 18.333 C 227.307 18.333,227.742 18.066,227.884 17.667 C 227.933 17.529,227.983 18.242,227.994 19.250 C 228.027 22.215,228.297 23.000,229.282 23.000 C 229.657 23.000,229.667 23.041,229.667 24.566 C 229.667 26.268,229.704 26.333,230.680 26.333 C 231.137 26.333,231.167 26.374,231.167 27.004 C 231.167 27.721,231.517 28.000,232.418 28.000 C 232.765 28.000,232.821 28.088,232.865 28.708 L 232.917 29.417 233.708 29.467 C 234.484 29.517,234.500 29.530,234.500 30.072 C 234.500 30.987,234.726 31.057,237.916 31.136 L 240.804 31.208 240.911 31.778 C 241.056 32.550,241.552 32.719,243.374 32.621 C 244.961 32.535,245.257 32.395,245.419 31.655 L 245.526 31.167 247.555 31.164 C 250.261 31.161,250.333 31.138,250.333 30.255 L 250.333 29.548 251.608 29.452 C 253.020 29.345,253.306 29.171,253.482 28.312 C 253.548 27.990,253.745 27.679,253.947 27.579 C 254.539 27.284,254.833 26.974,254.833 26.646 C 254.833 26.474,254.908 26.333,255.000 26.333 C 255.092 26.333,255.167 26.552,255.167 26.820 C 255.167 27.542,255.327 27.833,255.726 27.836 C 256.601 27.841,256.814 28.007,256.866 28.725 L 256.917 29.417 257.699 29.467 L 258.482 29.518 258.533 30.215 C 258.596 31.086,258.829 31.143,262.354 31.157 L 264.791 31.167 264.897 31.831 C 265.028 32.650,265.316 32.748,267.226 32.622 C 268.929 32.510,269.107 32.435,269.338 31.735 L 269.526 31.167 271.555 31.164 C 274.269 31.161,274.333 31.140,274.333 30.240 L 274.333 29.518 275.125 29.467 L 275.917 29.417 275.967 28.726 C 276.016 28.050,276.032 28.033,276.739 27.927 C 277.572 27.802,277.667 27.578,277.667 25.729 L 277.667 24.667 278.392 24.667 L 279.117 24.667 279.229 26.117 C 279.349 27.682,279.439 27.827,280.292 27.831 C 280.797 27.833,280.833 27.872,280.833 28.405 C 280.833 29.307,281.158 29.500,282.679 29.500 L 284.000 29.500 284.000 30.161 C 284.000 31.075,284.256 31.167,286.806 31.167 L 288.967 31.167 289.137 31.654 C 289.635 33.081,293.500 33.082,293.500 31.655 L 293.500 31.167 295.792 31.154 C 299.383 31.135,299.681 31.049,299.908 29.968 C 299.989 29.577,300.093 29.512,300.707 29.468 C 301.382 29.419,301.417 29.389,301.514 28.790 C 301.640 28.008,301.657 27.992,302.486 27.881 C 303.159 27.790,303.167 27.782,303.167 27.093 C 303.167 26.410,303.180 26.394,303.875 26.240 C 304.543 26.092,304.588 26.045,304.667 25.417 C 304.865 23.828,306.222 24.746,306.448 26.622 L 306.583 27.750 307.292 27.801 C 307.990 27.852,308.000 27.862,308.000 28.476 C 308.000 29.278,308.237 29.500,309.093 29.500 C 309.729 29.500,309.797 29.543,309.939 30.035 C 310.177 30.867,311.210 31.165,313.857 31.166 C 316.089 31.167,316.167 31.195,316.167 32.008 C 316.167 33.115,318.884 32.874,319.095 31.748 L 319.204 31.167 321.519 31.167 C 322.792 31.167,323.890 31.148,323.958 31.125 C 324.027 31.102,324.106 31.321,324.135 31.613 C 324.224 32.530,324.404 32.578,327.984 32.635 C 330.665 32.678,331.310 32.643,331.583 32.440 C 332.007 32.126,332.120 4.720,331.699 4.300 C 331.535 4.136,330.645 4.083,328.061 4.083 C 324.278 4.083,324.167 4.115,324.167 5.199 L 324.167 5.667 322.250 5.667 C 320.769 5.667,320.333 5.616,320.333 5.446 C 320.333 4.922,319.089 4.177,318.029 4.066 C 316.745 3.931,316.280 4.151,316.118 4.970 L 315.980 5.667 313.614 5.667 C 310.479 5.667,309.842 5.856,309.836 6.792 C 309.834 7.110,309.743 7.167,309.239 7.167 C 308.303 7.167,308.000 7.410,308.000 8.163 C 308.000 8.810,307.995 8.815,307.292 8.865 L 306.583 8.917 306.444 10.109 C 306.234 11.917,304.887 12.852,304.442 11.500 C 304.297 11.060,304.119 10.878,303.716 10.759 C 303.216 10.612,303.179 10.548,303.133 9.759 L 303.083 8.917 302.333 8.833 C 301.595 8.751,301.582 8.739,301.529 8.085 C 301.466 7.310,301.306 7.173,300.458 7.169 C 299.958 7.167,299.833 7.104,299.833 6.852 C 299.833 5.892,299.418 5.754,296.348 5.694 L 293.500 5.639 293.500 5.184 C 293.500 4.231,293.073 4.071,290.708 4.137 C 289.540 4.170,289.000 4.521,289.000 5.246 L 289.000 5.658 286.542 5.704 L 284.083 5.750 284.033 6.435 L 283.983 7.119 282.717 7.226 C 281.280 7.348,281.051 7.477,280.905 8.251 C 280.819 8.712,280.712 8.819,280.251 8.905 C 279.482 9.050,279.370 9.250,279.237 10.713 C 279.122 11.981,279.114 12.000,278.657 12.000 C 278.402 12.000,278.075 12.046,277.930 12.101 C 277.704 12.188,277.666 12.018,277.664 10.893 C 277.661 8.958,277.605 8.833,276.740 8.833 L 276.018 8.833 275.967 8.042 L 275.917 7.250 275.134 7.200 L 274.352 7.149 274.301 6.450 L 274.250 5.750 271.875 5.704 L 269.500 5.658 269.500 5.194 C 269.500 4.227,269.228 4.098,267.173 4.090 C 265.112 4.083,264.833 4.215,264.833 5.199 L 264.833 5.667 262.375 5.676 C 259.468 5.687,258.830 5.846,258.635 6.606 C 258.516 7.067,258.413 7.142,257.765 7.239 C 256.890 7.370,256.833 7.482,256.833 9.078 L 256.833 10.295 256.083 10.408 C 255.465 10.501,255.330 10.584,255.317 10.885 C 255.301 11.219,255.290 11.215,255.185 10.833 C 255.116 10.586,254.927 10.396,254.719 10.366 C 254.193 10.289,253.803 9.763,253.424 8.620 C 253.046 7.481,252.596 7.208,251.051 7.179 L 250.352 7.167 250.301 6.458 L 250.250 5.750 247.806 5.704 L 245.363 5.658 245.188 5.157 C 244.700 3.756,241.235 3.594,240.928 4.958 L 240.774 5.646 237.797 5.698 C 234.569 5.754,234.508 5.773,234.503 6.708 C 234.500 7.118,234.440 7.167,233.930 7.167 C 232.980 7.167,232.833 7.292,232.833 8.101 L 232.833 8.833 232.101 8.833 C 231.310 8.833,231.167 8.987,231.167 9.837 C 231.167 10.265,231.094 10.328,230.458 10.453 L 229.750 10.593 229.667 12.150 L 229.583 13.707 229.005 13.895 C 228.535 14.048,228.389 14.209,228.226 14.750 L 228.026 15.417 228.013 14.458 L 228.000 13.500 228.563 13.500 C 229.479 13.500,229.537 13.306,229.473 10.409 C 229.412 7.588,229.322 7.333,228.391 7.333 C 228.026 7.333,228.010 7.273,227.964 5.715 C 227.921 4.243,227.886 4.089,227.574 4.007 C 226.879 3.824,226.392 3.266,226.272 2.519 C 226.061 1.197,225.548 0.836,223.875 0.834 C 223.231 0.833,223.167 0.796,223.167 0.417 L 223.167 0.000 214.417 0.000 L 205.667 0.000 205.667 16.071 M376.805 6.125 C 376.790 9.494,376.748 11.970,376.712 11.628 C 376.641 10.948,376.181 10.500,375.555 10.500 C 375.232 10.500,375.179 10.400,375.134 9.708 L 375.083 8.917 374.333 8.833 C 373.595 8.751,373.582 8.739,373.529 8.085 C 373.466 7.310,373.306 7.173,372.458 7.169 C 371.958 7.167,371.833 7.104,371.833 6.852 C 371.833 5.892,371.418 5.754,368.348 5.694 L 365.500 5.639 365.500 5.090 C 365.500 3.638,361.407 3.695,361.087 5.151 L 360.974 5.667 358.588 5.667 C 355.984 5.667,356.000 5.660,356.000 6.680 C 356.000 7.133,355.956 7.167,355.358 7.167 C 353.863 7.167,353.087 7.723,352.907 8.924 C 352.822 9.490,352.723 9.667,352.492 9.667 C 352.326 9.667,352.142 9.817,352.083 10.000 C 352.025 10.183,351.839 10.333,351.669 10.333 C 351.500 10.333,351.323 10.427,351.277 10.542 C 351.231 10.656,351.187 10.469,351.180 10.125 C 351.169 9.614,351.225 9.500,351.489 9.500 C 351.666 9.500,351.859 9.350,351.917 9.166 C 351.975 8.983,352.167 8.755,352.345 8.661 C 352.619 8.514,352.667 8.303,352.667 7.250 C 352.667 5.680,352.643 5.667,349.928 5.667 L 347.833 5.667 347.833 5.179 C 347.833 3.822,345.292 3.679,345.019 5.020 L 344.904 5.583 343.202 5.631 L 341.500 5.678 341.500 5.204 C 341.500 4.114,341.394 4.083,337.584 4.083 C 334.367 4.083,334.124 4.105,333.903 4.407 C 333.458 5.016,333.560 31.894,334.010 32.343 C 334.418 32.752,340.780 32.787,341.184 32.383 C 341.573 31.994,341.647 30.501,341.657 22.885 L 341.667 15.186 342.375 15.135 L 343.083 15.083 343.134 14.292 L 343.185 13.500 346.426 13.500 L 349.667 13.500 349.667 18.750 C 349.667 24.539,349.690 24.667,350.750 24.667 C 351.132 24.667,351.167 24.728,351.167 25.408 C 351.167 25.828,351.259 26.208,351.379 26.283 C 351.496 26.357,351.719 26.617,351.875 26.862 C 352.030 27.107,352.306 27.355,352.487 27.413 C 352.669 27.470,352.950 27.820,353.114 28.190 C 353.460 28.975,354.362 29.500,355.365 29.500 C 355.970 29.500,356.000 29.526,356.003 30.042 C 356.007 31.046,356.086 31.078,358.712 31.137 L 361.102 31.190 361.279 31.658 C 361.803 33.047,365.490 33.018,365.497 31.625 L 365.500 31.167 367.708 31.157 C 371.233 31.141,371.825 30.970,371.831 29.967 C 371.833 29.550,371.890 29.515,372.625 29.467 C 373.397 29.418,373.418 29.402,373.472 28.834 C 373.545 28.061,373.738 27.862,374.471 27.801 C 375.063 27.752,375.085 27.726,375.135 27.042 C 375.179 26.426,375.244 26.323,375.635 26.241 C 376.398 26.081,376.580 25.905,376.680 25.233 C 376.733 24.876,376.808 26.330,376.847 28.465 C 376.905 31.676,376.960 32.374,377.167 32.511 C 377.532 32.751,384.095 32.639,384.345 32.388 C 384.746 31.987,384.819 30.553,384.826 22.968 L 384.833 15.186 385.542 15.135 L 386.250 15.083 386.301 14.292 L 386.352 13.500 388.740 13.500 L 391.129 13.500 391.239 14.235 C 391.356 15.012,391.539 15.167,392.341 15.167 L 392.822 15.167 392.869 23.578 C 392.913 31.388,392.938 32.010,393.214 32.286 C 393.475 32.547,393.906 32.590,396.756 32.635 L 400.000 32.686 400.000 20.760 L 400.000 8.833 399.592 8.833 C 399.225 8.833,399.180 8.756,399.134 8.042 L 399.083 7.250 398.301 7.200 L 397.518 7.149 397.467 6.450 L 397.417 5.750 395.042 5.704 L 392.667 5.658 392.667 5.194 C 392.667 4.234,392.389 4.099,390.478 4.130 C 388.592 4.161,388.167 4.370,388.167 5.268 C 388.167 5.662,388.146 5.667,386.500 5.667 L 384.833 5.667 384.833 2.833 L 384.833 0.000 380.833 0.000 L 376.833 0.000 376.805 6.125 M52.754 4.138 C 52.315 4.239,52.242 4.345,52.124 5.048 C 51.884 6.478,52.049 32.116,52.300 32.367 C 52.612 32.679,59.388 32.679,59.700 32.367 C 59.870 32.197,59.927 30.425,59.967 24.074 L 60.018 15.997 60.433 15.582 C 60.662 15.354,60.988 15.167,61.159 15.167 C 61.405 15.167,61.493 14.993,61.584 14.329 L 61.699 13.491 64.058 13.537 L 66.417 13.583 66.500 14.333 C 66.583 15.080,66.587 15.084,67.283 15.134 L 67.983 15.185 68.033 23.668 C 68.073 30.353,68.129 32.196,68.300 32.367 C 68.612 32.679,75.388 32.679,75.700 32.367 C 75.870 32.197,75.927 30.485,75.966 24.403 L 76.016 16.655 76.504 16.558 C 77.190 16.420,77.303 16.224,77.528 14.777 L 77.726 13.500 80.113 13.500 L 82.500 13.500 82.500 14.232 C 82.500 15.024,82.653 15.167,83.505 15.167 L 83.983 15.167 84.033 23.578 C 84.080 31.387,84.105 32.010,84.381 32.286 C 84.642 32.548,85.073 32.589,87.964 32.633 C 92.189 32.698,91.899 32.891,91.974 29.956 L 92.031 27.719 92.474 27.786 C 93.642 27.964,93.645 27.966,93.699 28.709 C 93.750 29.412,93.755 29.417,94.450 29.468 C 95.128 29.517,95.155 29.541,95.289 30.215 C 95.460 31.085,95.704 31.143,99.208 31.157 L 101.667 31.167 101.669 31.625 C 101.673 32.363,101.898 32.547,102.894 32.630 C 104.964 32.802,106.167 32.413,106.167 31.571 L 106.167 31.167 108.344 31.167 C 110.906 31.167,111.167 31.075,111.167 30.170 L 111.167 29.518 111.958 29.467 L 112.750 29.417 112.800 28.726 C 112.850 28.046,112.863 28.033,113.592 27.924 L 114.333 27.813 114.333 26.240 L 114.333 24.667 115.160 24.667 L 115.987 24.667 116.035 26.208 L 116.083 27.750 116.875 27.903 L 117.667 28.056 117.667 28.778 L 117.667 29.500 118.417 29.500 L 119.167 29.500 119.167 30.161 C 119.167 31.072,119.425 31.167,121.898 31.167 L 123.985 31.167 124.095 31.755 C 124.357 33.150,127.167 32.993,127.167 31.583 L 127.167 31.167 129.004 31.167 C 130.776 31.167,130.847 31.181,131.021 31.563 C 131.814 33.302,139.833 33.152,139.833 31.398 C 139.833 31.179,139.908 31.000,140.000 31.000 C 140.092 31.000,140.168 31.206,140.169 31.458 C 140.175 32.515,140.713 32.667,144.453 32.667 C 149.675 32.667,149.500 32.967,149.501 24.030 C 149.503 15.630,149.548 15.024,150.187 14.801 C 150.495 14.694,150.725 14.446,150.858 14.077 C 151.093 13.428,151.412 13.373,154.375 13.469 L 156.000 13.522 156.007 14.886 C 156.020 17.342,156.341 18.167,157.282 18.167 L 157.667 18.167 157.667 25.155 C 157.667 33.615,157.226 32.667,161.158 32.667 C 165.861 32.667,165.524 33.012,165.628 28.083 L 165.702 24.583 166.412 24.640 L 167.121 24.697 167.234 26.048 C 167.364 27.604,167.497 27.833,168.270 27.833 C 168.800 27.833,168.833 27.867,168.833 28.405 C 168.833 29.215,169.191 29.499,170.220 29.505 C 170.888 29.509,171.017 29.549,170.792 29.680 C 170.594 29.795,170.500 30.056,170.500 30.487 L 170.500 31.124 169.142 31.202 C 167.695 31.286,167.333 31.496,167.333 32.254 C 167.333 32.547,167.192 32.638,166.542 32.764 L 165.750 32.917 165.703 34.792 C 165.649 36.930,165.757 37.251,166.579 37.405 C 167.039 37.491,167.167 37.595,167.169 37.883 C 167.173 38.616,167.365 39.000,167.728 39.002 C 168.563 39.008,168.833 39.187,168.833 39.736 C 168.833 40.487,169.098 40.667,170.200 40.667 C 171.120 40.667,171.167 40.687,171.167 41.083 L 171.167 41.500 179.583 41.500 L 188.000 41.500 188.000 41.083 C 188.000 40.701,188.062 40.667,188.740 40.667 L 189.480 40.667 189.592 39.917 C 189.685 39.298,189.767 39.166,190.061 39.164 C 190.977 39.159,191.167 38.998,191.167 38.231 C 191.167 37.518,191.180 37.500,191.708 37.497 C 192.704 37.493,192.744 37.398,192.808 34.942 L 192.865 32.704 193.496 32.603 C 194.375 32.463,194.329 33.223,194.331 18.872 L 194.333 5.993 193.925 5.346 C 193.272 4.312,192.735 4.120,190.268 4.037 C 186.264 3.903,185.000 4.194,185.000 5.250 L 185.000 5.667 183.167 5.667 C 181.480 5.667,181.333 5.641,181.333 5.352 C 181.333 3.840,177.249 3.482,176.935 4.966 L 176.786 5.667 174.393 5.667 C 172.951 5.667,172.000 5.731,172.000 5.829 C 172.000 5.918,171.780 6.105,171.512 6.244 C 171.243 6.383,170.979 6.637,170.924 6.809 C 170.851 7.041,170.605 7.147,169.967 7.223 C 169.013 7.336,168.840 7.500,168.836 8.292 C 168.834 8.791,168.791 8.834,168.292 8.836 C 167.423 8.840,167.330 8.989,167.219 10.555 L 167.117 12.000 166.572 12.000 C 166.272 12.000,165.913 12.044,165.773 12.097 C 165.571 12.175,165.509 12.031,165.468 11.389 C 165.417 10.587,165.413 10.583,164.708 10.435 L 164.000 10.286 163.983 9.268 C 163.958 7.684,163.846 7.446,163.058 7.290 C 162.483 7.177,162.355 7.074,162.225 6.622 C 161.998 5.828,161.519 5.672,159.308 5.669 L 157.366 5.667 157.190 5.161 C 156.697 3.749,153.235 3.592,152.926 4.968 L 152.769 5.667 151.010 5.666 L 149.250 5.665 148.975 5.181 C 148.433 4.228,147.791 4.083,144.110 4.084 C 140.473 4.084,140.167 4.176,140.167 5.268 C 140.167 5.487,140.092 5.667,140.000 5.667 C 139.908 5.667,139.833 5.494,139.833 5.282 C 139.833 4.237,139.058 4.027,135.167 4.019 C 130.180 4.009,130.438 3.482,130.360 13.833 L 130.301 21.750 129.776 22.086 C 129.487 22.271,129.227 22.583,129.199 22.780 C 129.089 23.541,125.477 23.417,125.156 22.640 C 125.029 22.333,124.756 22.064,124.472 21.965 L 124.000 21.801 123.999 13.859 C 123.998 3.174,124.431 4.083,119.341 4.083 C 114.675 4.083,114.595 4.137,114.380 7.375 C 114.297 8.635,114.243 8.833,113.983 8.833 C 113.584 8.833,112.871 8.106,112.804 7.630 C 112.758 7.305,112.637 7.243,111.967 7.200 L 111.185 7.149 111.134 6.450 L 111.083 5.750 108.708 5.704 C 106.336 5.658,106.333 5.657,106.333 5.264 C 106.333 4.389,105.867 4.130,104.156 4.053 C 102.220 3.966,101.774 4.143,101.699 5.029 L 101.649 5.633 98.949 5.704 C 95.892 5.785,95.752 5.821,95.501 6.580 C 95.342 7.062,95.229 7.144,94.591 7.240 C 93.724 7.370,93.667 7.484,93.667 9.076 L 93.667 10.291 92.963 10.403 C 92.576 10.465,92.203 10.606,92.133 10.716 C 92.062 10.827,92.004 10.594,92.003 10.197 C 91.999 9.133,91.779 8.833,91.003 8.833 L 90.352 8.833 90.301 8.042 L 90.250 7.250 89.542 7.199 C 88.940 7.155,88.833 7.092,88.831 6.782 C 88.824 5.651,88.862 5.667,86.231 5.667 L 83.833 5.667 83.833 5.268 C 83.833 4.370,83.408 4.161,81.522 4.130 C 79.611 4.099,79.333 4.234,79.333 5.194 L 79.333 5.658 76.958 5.704 L 74.583 5.750 74.532 6.458 L 74.481 7.167 73.689 7.167 L 72.897 7.167 72.740 6.458 L 72.583 5.750 70.208 5.704 C 67.870 5.658,67.833 5.652,67.833 5.283 C 67.833 4.351,67.461 4.167,65.583 4.167 C 63.701 4.167,63.333 4.351,63.333 5.293 C 63.333 5.674,63.313 5.678,61.625 5.631 L 59.917 5.583 59.865 5.054 C 59.777 4.141,59.580 4.086,56.266 4.054 C 54.607 4.037,53.027 4.075,52.754 4.138 M218.423 7.902 C 218.537 8.663,218.748 8.826,219.625 8.831 C 219.987 8.833,220.000 8.887,220.000 10.409 L 220.000 11.985 219.412 12.095 C 218.808 12.209,218.500 12.562,218.500 13.142 C 218.500 13.484,218.384 13.528,216.857 13.759 C 216.056 13.880,215.500 14.320,215.500 14.833 C 215.500 15.126,215.389 15.167,214.583 15.167 L 213.667 15.167 213.667 11.167 L 213.667 7.167 215.990 7.167 L 218.313 7.167 218.423 7.902 M103.655 12.472 C 103.893 13.047,104.840 13.500,105.806 13.500 L 106.500 13.500 106.500 14.236 C 106.500 14.669,106.586 15.007,106.708 15.056 C 106.833 15.107,106.799 15.146,106.625 15.154 C 106.411 15.163,106.333 15.037,106.333 14.679 C 106.333 13.978,105.941 13.669,105.030 13.652 C 104.235 13.637,102.414 13.396,102.790 13.356 C 102.903 13.343,103.044 13.033,103.103 12.667 C 103.228 11.880,103.387 11.824,103.655 12.472 M266.854 12.479 C 267.205 13.096,268.032 13.500,268.942 13.500 L 269.667 13.500 269.667 14.236 C 269.667 14.669,269.752 15.007,269.875 15.056 C 269.999 15.107,269.966 15.146,269.792 15.154 C 269.570 15.164,269.500 15.034,269.500 14.617 C 269.500 13.907,269.245 13.667,268.491 13.667 C 266.919 13.667,265.845 13.464,266.094 13.215 C 266.226 13.084,266.333 12.757,266.333 12.488 C 266.333 11.872,266.508 11.869,266.854 12.479 M277.651 15.708 C 277.637 18.532,277.612 18.817,277.441 18.083 C 277.217 17.118,276.752 16.859,275.208 16.843 L 274.333 16.833 274.333 16.083 C 274.333 15.611,274.259 15.333,274.133 15.333 C 273.978 15.333,273.978 15.289,274.133 15.133 C 274.243 15.023,274.333 14.611,274.333 14.217 L 274.333 13.500 275.917 13.500 L 277.500 13.500 277.500 13.000 C 277.500 12.725,277.537 12.500,277.583 12.500 C 277.629 12.500,277.659 13.944,277.651 15.708 M39.667 13.698 C 39.667 13.954,40.337 14.667,40.578 14.667 C 40.681 14.667,40.878 14.985,41.017 15.375 C 41.197 15.879,41.422 16.155,41.798 16.333 L 42.326 16.583 42.330 18.375 C 42.333 20.162,42.332 20.167,41.929 20.167 C 41.427 20.167,41.001 20.573,40.997 21.054 C 40.994 21.558,40.820 21.783,40.273 21.991 C 39.994 22.097,39.727 22.372,39.615 22.668 L 39.427 23.167 36.890 23.167 L 34.352 23.167 34.301 22.460 C 34.261 21.902,34.180 21.742,33.917 21.703 C 32.983 21.564,32.833 21.484,32.831 21.122 C 32.825 20.189,32.668 20.000,31.897 20.000 L 31.167 20.000 31.167 18.333 L 31.167 16.667 31.897 16.667 C 32.662 16.667,32.825 16.476,32.831 15.574 C 32.833 15.307,32.990 15.196,33.542 15.074 C 34.227 14.922,34.252 14.894,34.301 14.208 L 34.352 13.500 37.010 13.500 C 38.947 13.500,39.667 13.554,39.667 13.698 M114.311 15.792 C 114.298 17.052,114.256 17.920,114.217 17.720 C 114.103 17.131,113.726 16.954,112.411 16.869 L 111.167 16.789 111.167 16.075 C 111.167 15.667,111.077 15.319,110.958 15.264 C 110.792 15.186,110.792 15.147,110.958 15.069 C 111.079 15.013,111.167 14.662,111.167 14.236 L 111.167 13.500 112.750 13.500 L 114.333 13.500 114.311 15.792 M183.199 14.292 L 183.250 15.083 184.042 15.134 L 184.833 15.185 184.833 17.948 C 184.833 20.967,184.695 21.378,183.630 21.529 C 183.304 21.576,183.243 21.696,183.199 22.375 L 183.148 23.167 179.991 23.167 L 176.833 23.167 176.831 22.792 C 176.826 21.904,176.659 21.686,175.899 21.572 L 175.167 21.462 175.167 20.731 C 175.167 20.329,175.094 20.000,175.004 20.000 C 174.915 20.000,174.728 19.780,174.589 19.512 C 174.451 19.243,174.186 18.976,174.002 18.917 C 173.158 18.649,173.975 16.667,174.929 16.667 C 175.099 16.667,175.167 16.454,175.167 15.917 C 175.167 15.182,175.178 15.167,175.708 15.164 C 176.476 15.160,176.679 14.977,176.785 14.191 L 176.877 13.500 180.013 13.500 L 183.148 13.500 183.199 14.292 M321.226 14.007 C 321.301 14.382,321.477 14.577,321.894 14.751 C 322.337 14.936,322.484 15.113,322.568 15.561 C 322.690 16.212,322.892 16.425,323.543 16.588 L 324.000 16.703 324.000 18.335 L 324.000 19.967 323.375 20.113 C 322.814 20.243,322.734 20.330,322.593 20.961 C 322.455 21.581,322.371 21.676,321.880 21.768 C 321.301 21.877,321.000 22.237,321.000 22.822 C 321.000 23.155,320.915 23.167,318.500 23.167 L 316.000 23.167 316.000 22.699 C 316.000 22.038,315.677 21.693,315.000 21.634 C 314.442 21.586,314.413 21.551,314.333 20.833 C 314.250 20.085,314.248 20.083,313.542 20.032 L 312.833 19.981 312.833 18.333 L 312.833 16.686 313.542 16.635 C 314.241 16.584,314.251 16.575,314.300 15.905 C 314.347 15.257,314.380 15.221,315.050 15.072 C 315.700 14.928,315.761 14.866,315.907 14.208 L 316.064 13.500 318.595 13.500 L 321.125 13.500 321.226 14.007 M365.836 13.875 C 365.840 14.411,366.014 14.620,366.695 14.904 C 367.173 15.104,367.316 15.271,367.402 15.733 C 367.682 17.225,374.469 17.203,374.909 15.708 C 375.057 15.207,375.122 15.167,375.776 15.167 C 376.274 15.167,376.534 15.080,376.653 14.875 C 376.772 14.670,376.825 15.695,376.828 18.304 C 376.833 21.686,376.810 22.000,376.571 21.762 C 376.427 21.618,376.062 21.500,375.759 21.500 C 375.247 21.500,375.202 21.455,375.103 20.836 C 374.964 19.969,374.893 19.955,371.077 20.026 C 367.671 20.089,367.333 20.201,367.333 21.265 C 367.333 21.559,367.215 21.688,366.875 21.769 C 366.240 21.920,365.833 22.313,365.833 22.776 L 365.833 23.167 363.333 23.167 L 360.833 23.167 360.831 22.625 C 360.827 21.861,360.644 21.654,359.880 21.552 L 359.211 21.462 359.104 20.273 C 358.992 19.019,358.663 18.500,357.982 18.500 C 357.808 18.500,357.667 18.425,357.667 18.333 C 357.667 18.242,357.835 18.166,358.042 18.164 C 358.813 18.159,359.154 17.462,359.163 15.875 L 359.167 15.167 359.827 15.167 C 360.572 15.167,360.833 14.867,360.833 14.011 L 360.833 13.500 363.333 13.500 C 365.814 13.500,365.833 13.503,365.836 13.875 M93.008 16.667 L 93.667 16.667 93.667 17.361 C 93.667 18.881,94.752 20.000,96.226 20.000 C 96.743 20.000,96.788 20.047,96.949 20.750 L 97.120 21.500 95.769 21.502 C 93.791 21.506,93.667 21.560,93.667 22.420 L 93.667 23.134 92.833 23.192 L 92.000 23.250 92.005 19.667 C 92.009 17.151,92.061 16.170,92.180 16.375 C 92.296 16.575,92.557 16.667,93.008 16.667 M257.167 18.641 C 257.167 19.220,258.181 19.853,259.333 19.992 C 260.018 20.075,260.088 20.127,260.140 20.583 C 260.171 20.858,260.274 21.177,260.368 21.292 C 260.504 21.456,260.226 21.500,259.062 21.502 C 256.948 21.506,256.833 21.553,256.833 22.420 L 256.833 23.134 256.000 23.192 L 255.166 23.250 255.167 22.470 C 255.167 21.793,255.117 21.680,254.792 21.618 C 254.585 21.578,254.887 21.535,255.462 21.523 C 256.715 21.496,256.833 21.319,256.833 19.489 C 256.833 18.830,256.905 18.333,257.000 18.333 C 257.092 18.333,257.167 18.472,257.167 18.641 M304.806 22.958 L 304.778 24.583 304.681 23.285 C 304.573 21.854,304.456 21.691,303.500 21.642 C 303.054 21.619,303.133 21.586,303.833 21.500 C 304.337 21.438,304.769 21.375,304.792 21.360 C 304.815 21.346,304.821 22.065,304.806 22.958 M103.333 21.885 C 103.333 22.477,103.713 22.864,104.430 23.003 C 104.909 23.095,104.604 23.133,103.287 23.148 L 101.492 23.167 101.392 22.670 C 101.273 22.075,101.100 21.916,100.333 21.697 C 99.849 21.558,100.053 21.528,101.542 21.515 C 103.306 21.500,103.333 21.506,103.333 21.885 M246.585 21.624 C 245.825 21.701,245.673 21.867,245.669 22.625 L 245.667 23.167 242.417 23.167 L 239.167 23.167 239.167 22.429 C 239.167 21.866,239.097 21.673,238.875 21.615 C 238.715 21.573,240.533 21.543,242.917 21.547 C 245.300 21.552,246.951 21.587,246.585 21.624 M266.571 22.077 C 266.694 22.732,266.832 22.850,267.661 23.013 C 268.045 23.088,267.626 23.135,266.458 23.148 C 264.834 23.165,264.667 23.139,264.667 22.865 C 264.667 22.402,264.262 21.952,263.644 21.728 C 263.136 21.544,263.242 21.524,264.773 21.513 L 266.463 21.500 266.571 22.077 M295.367 21.700 C 295.257 21.810,295.167 22.185,295.167 22.533 L 295.167 23.167 291.917 23.167 C 288.892 23.167,288.667 23.146,288.667 22.865 C 288.667 22.402,288.262 21.952,287.644 21.728 C 287.176 21.559,287.787 21.523,291.325 21.513 C 294.624 21.503,295.522 21.544,295.367 21.700 M184.833 31.133 C 184.833 31.206,184.568 31.362,184.243 31.480 C 183.796 31.641,183.629 31.812,183.555 32.183 C 183.501 32.453,183.392 32.714,183.312 32.763 C 183.232 32.813,183.167 33.007,183.167 33.195 C 183.167 34.161,182.650 34.327,179.649 34.330 L 176.881 34.333 176.732 33.625 C 176.591 32.956,176.546 32.912,175.917 32.833 C 175.260 32.751,175.249 32.738,175.159 31.958 L 175.068 31.167 175.943 31.167 C 176.815 31.167,176.819 31.169,176.930 31.762 C 177.170 33.040,180.372 32.895,180.972 31.578 C 181.146 31.197,181.241 31.175,182.952 31.124 C 183.941 31.095,184.769 31.055,184.792 31.035 C 184.815 31.016,184.833 31.060,184.833 31.133 " stroke="none" fill="#040404" fill-rule="evenodd"></path><path id="path1" d="" stroke="none" fill="#080404" fill-rule="evenodd"></path></g></svg>