<?xml version="1.0" standalone="no"?>
<!DOCTYPE svg PUBLIC "-//W3C//DTD SVG 20010904//EN"
 "http://www.w3.org/TR/2001/REC-SVG-20010904/DTD/svg10.dtd">
<svg version="1.0" xmlns="http://www.w3.org/2000/svg"
 width="3840.000000pt" height="2160.000000pt" viewBox="0 0 3840.000000 2160.000000"
 preserveAspectRatio="xMidYMid meet">

<g transform="translate(0.000000,2160.000000) scale(0.100000,-0.100000)"
fill="#000000" stroke="none">
<path d="M1940 13729 c-216 -15 -426 -52 -600 -104 -81 -24 -289 -104 -300
-115 -3 -3 -34 -20 -70 -39 -61 -33 -186 -117 -220 -148 -94 -88 -171 -172
-215 -238 -162 -242 -231 -482 -242 -833 -13 -407 56 -659 250 -918 106 -141
262 -294 407 -399 30 -22 57 -42 60 -46 8 -11 256 -170 365 -235 55 -32 109
-64 120 -71 11 -7 27 -15 35 -19 8 -4 71 -39 140 -78 69 -38 143 -79 165 -91
121 -66 236 -132 283 -161 29 -19 55 -34 58 -34 3 0 45 -27 95 -60 49 -33 92
-60 95 -60 3 0 10 -5 17 -10 7 -6 52 -42 102 -82 142 -114 208 -188 268 -303
101 -190 59 -527 -83 -679 -47 -50 -138 -99 -230 -123 -163 -42 -426 -7 -529
72 -72 55 -122 113 -157 182 l-39 78 -5 335 -5 335 -729 3 -728 2 5 -317 c5
-315 13 -405 50 -560 23 -96 96 -281 139 -351 21 -34 38 -64 38 -67 0 -6 5
-12 103 -131 119 -142 246 -241 437 -338 218 -111 482 -185 790 -222 202 -24
641 -24 835 0 715 89 1163 357 1386 831 101 215 142 456 143 840 1 257 -8 351
-50 513 -21 83 -106 281 -135 316 -5 6 -37 49 -71 95 -141 193 -355 373 -713
600 -101 64 -398 229 -665 368 -224 117 -459 259 -580 350 -136 102 -239 237
-265 345 -17 73 -20 211 -5 288 35 183 176 319 363 351 101 17 265 6 346 -22
109 -38 210 -136 261 -256 23 -55 25 -72 30 -298 l5 -240 675 0 675 0 3 165
c7 408 -35 654 -150 869 -120 227 -282 379 -540 507 -328 164 -873 242 -1418
203z"/>
<path d="M19640 13700 c-451 -33 -807 -137 -1079 -317 -79 -52 -321 -280 -321
-302 0 -5 -16 -33 -36 -62 -78 -115 -146 -295 -186 -491 -20 -99 -23 -143 -23
-353 0 -193 4 -257 18 -325 55 -261 136 -429 296 -610 78 -89 88 -99 195 -193
216 -187 406 -312 871 -569 342 -190 435 -243 562 -325 172 -109 251 -170 353
-272 89 -89 151 -189 176 -286 18 -65 17 -242 0 -326 -44 -204 -163 -326 -361
-370 -84 -18 -264 -16 -350 5 -165 40 -304 170 -348 326 -5 19 -12 177 -16
350 l-6 315 -715 0 -715 0 -3 -245 c-5 -387 24 -598 113 -815 119 -294 361
-547 663 -694 485 -235 1241 -298 1895 -156 494 107 870 368 1050 730 20 39
45 95 56 125 73 190 119 550 108 850 -14 386 -92 611 -298 865 -130 161 -380
365 -649 530 -97 60 -188 113 -290 168 -30 16 -75 41 -100 55 -25 14 -79 43
-120 65 -41 22 -102 54 -135 72 -33 18 -100 54 -150 80 -261 140 -501 304
-593 405 -47 53 -110 157 -121 202 -62 258 26 506 215 601 160 80 412 74 558
-14 68 -40 130 -110 166 -186 37 -78 50 -179 50 -400 l0 -163 670 0 670 0 0
238 c0 326 -22 483 -97 681 -23 60 -57 131 -76 156 -4 5 -24 35 -44 65 -20 30
-40 57 -45 58 -4 2 -8 8 -8 13 0 13 -147 154 -195 187 -22 15 -42 30 -45 33
-3 4 -43 28 -90 54 -208 115 -467 191 -777 229 -153 19 -529 27 -693 16z"/>
<path d="M36065 13705 c-11 -2 -69 -9 -130 -15 -171 -18 -410 -73 -549 -126
-237 -90 -390 -186 -541 -338 -92 -93 -108 -111 -162 -192 -46 -67 -94 -160
-123 -237 -11 -28 -24 -61 -29 -72 -13 -31 -38 -124 -50 -185 -6 -30 -15 -79
-21 -109 -27 -140 -31 -394 -27 -1701 3 -1175 6 -1358 20 -1450 27 -181 48
-256 105 -390 188 -439 582 -723 1169 -840 200 -40 292 -50 533 -57 645 -19
1184 124 1530 407 71 58 151 137 190 189 14 18 31 39 38 47 23 24 111 181 138
247 42 99 73 201 89 294 36 208 40 315 40 1158 l0 830 -960 0 -960 0 0 -395 0
-395 278 -3 277 -2 0 -474 c0 -280 -4 -495 -10 -527 -32 -170 -155 -304 -332
-366 -107 -37 -282 -44 -395 -14 -242 62 -363 195 -393 431 -8 59 -10 514 -7
1465 4 1473 2 1410 50 1543 38 100 128 196 232 246 90 44 165 59 290 59 207 0
355 -66 454 -203 77 -106 93 -183 100 -470 l6 -235 680 0 680 0 -1 245 c-1
317 -28 504 -99 700 -25 69 -113 241 -143 280 -15 19 -35 46 -44 60 -23 35
-144 158 -203 206 -230 187 -550 311 -955 371 -96 14 -706 28 -765 18z"/>
<path d="M23108 11563 c-2 -1105 0 -2081 4 -2171 9 -208 30 -328 84 -489 39
-117 128 -295 167 -335 7 -7 23 -29 36 -48 40 -58 181 -192 266 -252 68 -47
251 -148 269 -148 4 0 25 -9 49 -19 131 -61 417 -126 667 -152 151 -16 584
-17 730 -1 432 47 762 159 1009 342 107 79 174 147 258 261 156 210 237 450
263 774 7 87 10 815 8 2185 l-3 2055 -680 0 -680 0 -5 -2120 c-5 -2013 -6
-2123 -24 -2180 -60 -201 -215 -323 -437 -348 -283 -31 -502 96 -592 346 -9
24 -13 578 -17 2167 l-5 2135 -682 3 -682 2 -3 -2007z"/>
<path d="M6070 13553 c0 -6 -80 -439 -135 -728 -13 -71 -34 -186 -45 -254 -12
-69 -23 -128 -25 -131 -2 -4 -11 -51 -20 -106 -9 -54 -32 -180 -50 -279 -19
-99 -64 -340 -100 -535 -36 -195 -72 -389 -80 -430 -8 -41 -21 -118 -30 -170
-8 -52 -20 -115 -25 -140 -5 -25 -18 -94 -29 -155 -36 -198 -131 -707 -156
-840 -13 -71 -34 -186 -45 -254 -12 -69 -23 -128 -25 -131 -2 -4 -11 -51 -20
-106 -9 -54 -32 -180 -50 -279 -56 -293 -154 -827 -161 -872 l-7 -43 731 0
730 0 11 68 c6 37 27 173 46 302 20 129 51 341 70 470 20 129 40 264 45 300 6
36 17 110 25 165 8 55 24 161 35 235 25 162 87 576 135 900 20 129 40 264 45
300 6 36 17 110 25 165 8 55 21 145 30 200 8 55 35 235 60 400 25 165 61 406
80 535 20 129 49 323 65 430 16 107 36 242 45 300 8 58 18 124 22 148 4 32 10
42 24 42 11 0 19 -4 19 -9 0 -9 38 -273 110 -766 23 -154 59 -401 80 -550 22
-148 64 -441 95 -650 30 -209 64 -441 75 -515 80 -552 103 -715 125 -857 14
-89 32 -208 39 -265 8 -57 35 -242 60 -413 25 -170 61 -420 81 -555 19 -135
40 -275 46 -312 l11 -68 730 0 c653 0 730 2 724 15 -3 9 -15 71 -26 138 -12
67 -52 291 -90 497 -38 206 -80 436 -94 510 -14 74 -34 185 -45 245 -12 61
-27 146 -35 190 -8 44 -33 181 -56 305 -23 124 -57 311 -76 415 -18 105 -45
249 -58 320 -14 72 -48 256 -76 410 -28 154 -64 350 -80 435 -16 85 -34 185
-40 222 -6 37 -19 111 -29 165 -11 54 -26 136 -35 183 -9 47 -34 184 -56 305
-22 121 -50 270 -61 330 -11 61 -24 133 -30 160 -8 42 -66 365 -101 558 l-10
57 -1209 0 c-665 0 -1209 -3 -1209 -7z"/>
<path d="M10696 13438 c-4 -68 -13 -451 -21 -853 -9 -401 -22 -1022 -30 -1380
-8 -357 -24 -1073 -35 -1590 -11 -517 -23 -1069 -27 -1228 l-6 -287 678 2 678
3 3 35 c1 19 5 546 8 1170 12 2218 26 3694 36 3704 20 20 12 57 170 -799 44
-242 96 -521 115 -620 19 -99 43 -232 54 -295 19 -109 38 -212 95 -520 14 -74
51 -270 81 -435 31 -165 69 -370 85 -455 16 -85 36 -198 45 -250 8 -52 22
-124 29 -160 8 -36 26 -132 41 -215 15 -82 35 -193 45 -245 10 -52 23 -122 29
-155 21 -117 122 -661 132 -712 l10 -53 690 0 c379 0 689 2 689 5 0 3 25 142
56 308 31 166 59 316 61 332 2 17 18 100 33 185 35 182 135 729 151 815 6 33
17 92 24 130 8 39 28 149 45 245 17 96 37 204 45 240 8 36 22 108 30 160 9 52
29 165 45 250 16 85 52 279 80 430 28 151 64 345 80 430 51 271 80 431 105
573 13 76 38 209 54 295 17 86 44 236 62 332 31 174 41 203 58 184 5 -5 14
-725 20 -1634 6 -894 14 -1997 18 -2452 l6 -828 679 0 679 0 -6 178 c-7 231
-20 817 -50 2272 -35 1660 -53 2485 -61 2768 l-7 242 -1106 -2 -1106 -3 -22
-135 c-31 -193 -107 -669 -159 -990 -24 -151 -59 -372 -79 -490 -38 -237 -91
-568 -130 -815 -14 -88 -34 -214 -45 -280 -11 -66 -40 -248 -65 -405 -25 -157
-64 -395 -85 -530 -22 -135 -47 -290 -56 -345 -28 -175 -29 -180 -45 -183 -17
-3 -15 -10 -84 423 -13 83 -36 224 -50 315 -14 91 -35 217 -45 280 -18 108
-36 222 -61 385 -6 39 -15 90 -19 115 -9 45 -17 96 -44 270 -9 52 -29 178 -45
280 -16 102 -51 316 -76 475 -26 160 -62 385 -80 500 -99 613 -128 795 -152
945 -14 91 -27 171 -29 178 -3 9 -233 12 -1108 12 l-1104 0 -6 -122z"/>
<path d="M28440 10855 l0 -2705 667 0 666 0 -7 428 c-8 528 -31 1884 -51 2992
-19 1048 -19 1030 -1 1030 15 0 37 -63 121 -345 66 -224 74 -250 118 -395 85
-275 160 -525 168 -555 4 -16 19 -66 32 -110 51 -165 129 -422 148 -490 11
-38 36 -117 54 -175 18 -58 50 -161 70 -230 20 -69 45 -150 55 -180 10 -30 28
-89 39 -130 11 -41 34 -118 51 -170 17 -52 42 -135 56 -185 14 -49 38 -130 54
-180 16 -49 38 -124 50 -165 12 -41 33 -109 46 -150 13 -41 37 -122 54 -180
17 -58 44 -148 60 -200 16 -52 57 -187 90 -300 34 -113 69 -227 78 -255 l17
-50 963 -3 962 -2 0 2705 0 2705 -669 0 -670 0 5 -217 c4 -179 31 -1781 59
-3418 3 -181 8 -404 11 -493 l7 -164 -23 4 c-20 2 -26 14 -40 73 -17 68 -86
309 -135 470 -48 160 -78 262 -100 340 -32 116 -81 288 -109 380 -34 112 -73
245 -100 345 -13 47 -31 105 -39 130 -9 25 -25 79 -36 120 -30 111 -40 148
-62 220 -38 124 -100 337 -125 430 -9 30 -30 105 -48 165 -19 61 -44 146 -56
190 -12 44 -43 148 -67 230 -25 83 -53 179 -63 215 -17 63 -69 240 -237 815
-19 66 -37 130 -40 143 l-5 22 -1009 0 -1009 0 0 -2705z"/>
</g>
</svg>
